<svg width="105" height="65" viewBox="0 0 105 65" fill="none" xmlns="http://www.w3.org/2000/svg">
<circle cx="8.5" cy="32.5" r="8.5" fill="#FF0C0C"/>
<path d="M36.208 16.728C39.216 16.728 41.696 17.096 43.648 17.832C45.6 18.568 47.056 19.688 48.016 21.192C48.976 22.664 49.456 24.536 49.456 26.808C49.456 28.472 49.136 29.896 48.496 31.08C47.888 32.264 47.088 33.256 46.096 34.056C45.104 34.824 44.032 35.448 42.88 35.928L52.72 51H45.808L37.6 37.464H32.608V51H26.464V16.728H36.208ZM35.824 21.864H32.608V32.424H36.016C37.712 32.424 39.088 32.216 40.144 31.8C41.2 31.384 41.968 30.776 42.448 29.976C42.96 29.176 43.216 28.184 43.216 27C43.216 25.752 42.944 24.76 42.4 24.024C41.856 23.256 41.04 22.712 39.952 22.392C38.896 22.04 37.52 21.864 35.824 21.864ZM67.3833 24.504C69.7193 24.504 71.7193 24.984 73.3833 25.944C75.0793 26.872 76.3913 28.216 77.3193 29.976C78.2473 31.704 78.7113 33.816 78.7113 36.312V39.384H61.5273C61.5913 41.752 62.2473 43.592 63.4953 44.904C64.7433 46.184 66.4713 46.824 68.6793 46.824C70.3753 46.824 71.8793 46.664 73.1913 46.344C74.5353 45.992 75.9113 45.496 77.3193 44.856V49.704C76.0393 50.312 74.7113 50.76 73.3353 51.048C71.9593 51.336 70.3113 51.48 68.3913 51.48C65.8633 51.48 63.6073 51 61.6233 50.04C59.6713 49.048 58.1353 47.56 57.0153 45.576C55.9273 43.592 55.3833 41.128 55.3833 38.184C55.3833 35.208 55.8793 32.712 56.8713 30.696C57.8953 28.648 59.3033 27.112 61.0953 26.088C62.8873 25.032 64.9833 24.504 67.3833 24.504ZM67.3833 28.968C65.7833 28.968 64.4713 29.496 63.4473 30.552C62.4553 31.576 61.8633 33.112 61.6713 35.16H72.8553C72.8553 33.944 72.6473 32.872 72.2313 31.944C71.8473 31.016 71.2553 30.296 70.4553 29.784C69.6553 29.24 68.6313 28.968 67.3833 28.968ZM95.3219 51.48C92.8579 51.48 90.7139 51.016 88.8899 50.088C87.0979 49.128 85.7059 47.672 84.7139 45.72C83.7539 43.736 83.2739 41.208 83.2739 38.136C83.2739 34.936 83.8019 32.344 84.8579 30.36C85.9459 28.344 87.4339 26.872 89.3219 25.944C91.2099 24.984 93.3699 24.504 95.8019 24.504C97.4339 24.504 98.8899 24.664 100.17 24.984C101.45 25.304 102.538 25.688 103.434 26.136L101.658 30.888C100.666 30.504 99.6739 30.184 98.6819 29.928C97.6899 29.64 96.7299 29.496 95.8019 29.496C94.3619 29.496 93.1619 29.816 92.2019 30.456C91.2739 31.096 90.5859 32.056 90.1379 33.336C89.6899 34.584 89.4659 36.168 89.4659 38.088C89.4659 39.944 89.6899 41.496 90.1379 42.744C90.6179 43.992 91.3219 44.936 92.2499 45.576C93.1779 46.184 94.3299 46.488 95.7059 46.488C97.1779 46.488 98.4739 46.312 99.5939 45.96C100.714 45.608 101.77 45.128 102.762 44.52V49.752C101.77 50.36 100.698 50.792 99.5459 51.048C98.4259 51.336 97.0179 51.48 95.3219 51.48Z" fill="white"/>
</svg>
