<svg width="48" height="47" viewBox="0 0 48 47" fill="none" xmlns="http://www.w3.org/2000/svg">
<path d="M29.2526 33.2061C28.7776 33.2483 28.0576 33.4449 27.9816 33.4516L27.2729 33.5588L25.7052 33.6981L24.079 33.1794L19.5866 30.0418L16.1472 26.899L14.1275 24.6469L12.4568 22.0101L11.984 20.4605L11.8748 19.2323C11.9558 18.8862 12.1139 18.1501 12.0983 17.9746C12.0827 17.7992 12.573 17.2103 12.8201 16.9379L14.2585 15.8816C14.6666 15.6243 15.5279 15.0792 15.7086 14.957C15.9344 14.8043 16.9474 13.6533 16.9357 13.5217C16.9263 13.4164 17.5526 12.5385 17.6069 12.0711C17.7052 11.2237 17.505 10.5417 17.4925 10.4013C17.4802 10.2629 16.8814 9.31083 16.5618 8.80261L16.5485 8.78142L13.0389 4.84908L11.6354 3.60327L10.7849 3.19252L9.66885 3.02642L8.81372 3.1024L8.16421 3.33695L7.17752 4.08776L5.84974 5.31099L4.44643 6.76197L3.42708 8.22305L2.48641 10.0308L1.73967 11.8656L1.48748 13.8774L1.59513 16.1668L1.95274 18.036L2.56347 20.0596L2.90623 21.2229L3.97571 23.5594L5.14873 25.4446L6.24307 26.9832L7.90675 29.0016L9.29003 30.5587L10.4996 31.7775L11.393 32.6708L12.3735 33.4679L16.3317 36.5204L17.9252 37.7493L21.8288 40.1877L22.9838 40.7924L24.483 41.4992L28.036 42.6867L30.5329 43.3048L33.3787 43.5383L34.8156 43.5433L36.3834 43.404L37.9869 43.1289L39.2462 42.7517L41.1792 41.8726L42.9026 40.7911L45.8517 37.8764L46.7597 36.7789L46.9076 35.749L46.79 34.9636L46.4192 34.024L45.6683 33.1181L44.8303 32.3083L43.0389 31.0085L38.5614 28.5769L37.7187 28.2539L36.943 28.146L36.0879 28.222L35.1455 28.3941L34.0482 28.9779L33.0732 29.8603L32.2727 30.5504L31.6146 31.2278L30.8771 32.0891L30.3024 32.6265L29.2526 33.2061Z" fill="black"/>
</svg>
