<svg width="60" height="58" viewBox="0 0 60 58" fill="none" xmlns="http://www.w3.org/2000/svg">
<mask id="path-1-inside-1_505_1935" fill="white">
<path d="M19.9648 10.4487C24.2859 8.26443 29.2431 7.55381 34.0339 8.43183C38.8248 9.30984 43.1689 11.7251 46.3631 15.2866C49.5573 18.8482 51.4146 23.3476 51.6344 28.0564C51.8542 32.7653 50.4236 37.4081 47.5742 41.2332C44.7247 45.0583 40.6233 47.8419 35.9337 49.1334C31.244 50.4249 26.2408 50.1487 21.7338 48.3495C17.2268 46.5503 13.4798 43.3335 11.0994 39.2196C8.71896 35.1058 7.84443 30.3358 8.61735 25.6817L11.513 26.1311C10.8447 30.1549 11.6008 34.2789 13.6589 37.8357C15.7169 41.3924 18.9565 44.1737 22.8532 45.7292C26.7499 47.2848 31.0756 47.5236 35.1301 46.407C39.1847 45.2904 42.7307 42.8837 45.1943 39.5766C47.6579 36.2695 48.8947 32.2554 48.7047 28.1842C48.5147 24.113 46.9089 20.2229 44.1473 17.1437C41.3856 14.0645 37.6298 11.9763 33.4877 11.2171C29.3456 10.458 25.0597 11.0724 21.3238 12.9609L19.9648 10.4487Z"/>
</mask>
<path d="M19.9648 10.4487C24.2859 8.26443 29.2431 7.55381 34.0339 8.43183C38.8248 9.30984 43.1689 11.7251 46.3631 15.2866C49.5573 18.8482 51.4146 23.3476 51.6344 28.0564C51.8542 32.7653 50.4236 37.4081 47.5742 41.2332C44.7247 45.0583 40.6233 47.8419 35.9337 49.1334C31.244 50.4249 26.2408 50.1487 21.7338 48.3495C17.2268 46.5503 13.4798 43.3335 11.0994 39.2196C8.71896 35.1058 7.84443 30.3358 8.61735 25.6817L11.513 26.1311C10.8447 30.1549 11.6008 34.2789 13.6589 37.8357C15.7169 41.3924 18.9565 44.1737 22.8532 45.7292C26.7499 47.2848 31.0756 47.5236 35.1301 46.407C39.1847 45.2904 42.7307 42.8837 45.1943 39.5766C47.6579 36.2695 48.8947 32.2554 48.7047 28.1842C48.5147 24.113 46.9089 20.2229 44.1473 17.1437C41.3856 14.0645 37.6298 11.9763 33.4877 11.2171C29.3456 10.458 25.0597 11.0724 21.3238 12.9609L19.9648 10.4487Z" stroke="white" stroke-width="8" mask="url(#path-1-inside-1_505_1935)"/>
<path d="M38.8265 28.8746L26.4823 35.7639V21.9852L38.8265 28.8746Z" fill="#D9D9D9"/>
</svg>
