<svg width="147" height="66" viewBox="0 0 147 66" fill="none" xmlns="http://www.w3.org/2000/svg">
<line x1="1.5" y1="24" x2="1.5" y2="42" stroke="white" stroke-width="3"/>
<line x1="9.5" y1="18" x2="9.5" y2="47" stroke="white" stroke-width="3"/>
<line x1="17.5" y1="13" x2="17.5" y2="52" stroke="white" stroke-width="3"/>
<line x1="25.5" y1="27" x2="25.5" y2="38" stroke="white" stroke-width="3"/>
<line x1="33.5" y1="18" x2="33.5" y2="47" stroke="white" stroke-width="3"/>
<line x1="41.5" y1="24" x2="41.5" y2="42" stroke="white" stroke-width="3"/>
<line x1="49.5" y1="13" x2="49.5" y2="52" stroke="white" stroke-width="3"/>
<line x1="57.5" y1="57" x2="57.5" y2="9" stroke="white" stroke-width="3"/>
<line x1="65.5" y1="61" x2="65.5" y2="4.00003" stroke="white" stroke-width="3"/>
<line x1="73.5" y1="66" x2="73.5" stroke="white" stroke-width="3"/>
<line y1="-1.5" x2="48" y2="-1.5" transform="matrix(0 -1 -1 0 80 57)" stroke="white" stroke-width="3"/>
<line y1="-1.5" x2="58" y2="-1.5" transform="matrix(0 1 1 0 91 3)" stroke="white" stroke-width="3"/>
<line y1="-1.5" x2="38" y2="-1.5" transform="matrix(0 1 1 0 99 14)" stroke="white" stroke-width="3"/>
<line y1="-1.5" x2="28" y2="-1.5" transform="matrix(0 1 1 0 107 19)" stroke="white" stroke-width="3"/>
<line x1="113.5" y1="4" x2="113.5" y2="61" stroke="white" stroke-width="3"/>
<line x1="121.5" y1="14" x2="121.5" y2="52" stroke="white" stroke-width="3"/>
<line x1="129.5" y1="19" x2="129.5" y2="47" stroke="white" stroke-width="3"/>
<line x1="137.5" y1="23" x2="137.5" y2="43" stroke="white" stroke-width="3"/>
<line x1="145.5" y1="28.5" x2="145.5" y2="37.5" stroke="white" stroke-width="3"/>
</svg>
